<?xml version="1.0" encoding="UTF-8" standalone="no"?>
<!DOCTYPE svg PUBLIC "-//W3C//DTD SVG 1.1//EN" "http://www.w3.org/Graphics/SVG/1.1/DTD/svg11.dtd">
<!-- Created with Vectornator (http://vectornator.io/) -->
<svg height="100%" stroke-miterlimit="10" style="fill-rule:nonzero;clip-rule:evenodd;stroke-linecap:round;stroke-linejoin:round;" version="1.1" viewBox="0 0 2198 2204" width="100%" xml:space="preserve" xmlns="http://www.w3.org/2000/svg" xmlns:vectornator="http://vectornator.io" xmlns:xlink="http://www.w3.org/1999/xlink">
<defs>
<clipPath id="TextBounds">
<rect height="319.697" width="564.403" x="821.256" y="934.731"/>
</clipPath>
</defs>
<clipPath id="ArtboardFrame">
<rect height="2204" width="2198" x="0" y="0"/>
</clipPath>
<g clip-path="url(#ArtboardFrame)" id="Outer_shell" vectornator:layerName="Outer_shell">
<path d="M1099.89 2160.01C517.226 2160.01 44.8853 1687.02 44.8852 1103.55C44.8851 520.092 517.226 47.103 1099.89 47.103C1682.55 47.1031 2154.89 520.092 2154.89 1103.55C2154.89 1687.02 1682.55 2160.01 1099.89 2160.01Z" fill="none" opacity="1" stroke="#000000" stroke-linecap="butt" stroke-linejoin="miter" stroke-width="14.9822"/>
<path d="M1101.74 730.989C895.7 730.989 728.668 895.918 728.668 1099.37C728.668 1302.82 895.7 1467.75 1101.74 1467.75C1307.79 1467.75 1474.82 1302.82 1474.82 1099.37C1474.82 895.918 1307.79 730.989 1101.74 730.989Z" fill="none" opacity="1" stroke="#000000" stroke-linecap="butt" stroke-linejoin="miter" stroke-width="14.7077"/>
<g fill="#000000" opacity="1" stroke="none">
<path clip-path="url(#TextBounds)" d="M945.267 1105.12C950.331 1105.45 953.475 1106.79 954.7 1109.16C955.925 1111.53 956.538 1114.18 956.538 1117.13C956.538 1119.9 955.884 1122.52 954.578 1124.97C953.271 1127.42 950.167 1128.8 945.267 1129.13L945.267 1175.2C945.267 1180.42 943.797 1184.02 940.857 1185.98C937.916 1187.94 934.731 1188.92 931.301 1188.92C928.197 1188.92 925.461 1187.81 923.093 1185.61C920.724 1183.4 919.54 1179.93 919.54 1175.2L919.54 1129.13L857.794 1129.13L857.794 1174.95C857.794 1180.18 856.324 1183.77 853.384 1185.73C850.444 1187.69 847.34 1188.67 844.073 1188.67C840.97 1188.67 838.234 1187.57 835.865 1185.36C833.496 1183.16 832.312 1179.69 832.312 1174.95L832.312 1049.74C832.312 1046.8 832.802 1044.39 833.782 1042.52C834.762 1040.64 836.028 1039.21 837.58 1038.23C839.132 1037.25 840.847 1036.55 842.726 1036.15C844.604 1035.74 846.442 1035.53 848.239 1035.53C850.852 1035.53 853.098 1036.47 854.977 1038.35C856.855 1040.23 857.794 1043.29 857.794 1047.54L857.794 1105.12L919.54 1105.12L919.54 1049.74C919.54 1046.8 920.03 1044.39 921.01 1042.52C921.99 1040.64 923.256 1039.21 924.808 1038.23C926.359 1037.25 928.075 1036.55 929.953 1036.15C931.832 1035.74 933.669 1035.53 935.466 1035.53C938.406 1035.53 940.775 1036.47 942.572 1038.35C944.369 1040.23 945.267 1043.29 945.267 1047.54L945.267 1105.12Z"/>
<path clip-path="url(#TextBounds)" d="M975.65 1166.86C974.506 1164.41 973.934 1162.13 973.934 1160C973.934 1157.06 974.996 1154.65 977.12 1152.78C979.243 1150.9 981.938 1149.96 985.205 1149.96C987.002 1149.96 988.676 1150.28 990.228 1150.94C991.78 1151.59 993.373 1152.49 995.006 1153.63C1001.05 1158.86 1006.93 1162.74 1012.65 1165.27C1018.36 1167.8 1025.14 1169.07 1032.98 1169.07C1041.81 1169.07 1048.13 1167.23 1051.97 1163.56C1055.81 1159.88 1057.89 1155.19 1058.22 1149.47C1058.38 1143.91 1057.2 1139.38 1054.67 1135.87C1052.14 1132.36 1048.95 1129.62 1045.11 1127.66C1041.27 1125.7 1037.15 1124.23 1032.74 1123.25C1028.33 1122.27 1024.41 1121.54 1020.98 1121.05C1015.42 1120.07 1009.99 1118.68 1004.68 1116.88C999.376 1115.08 994.68 1112.71 990.596 1109.77C986.512 1106.83 983.245 1103.2 980.795 1098.87C978.345 1094.54 977.201 1089.36 977.365 1083.31C977.528 1075.63 979.529 1069.06 983.368 1063.59C987.206 1058.12 992.066 1053.66 997.946 1050.23C1003.83 1046.8 1010.28 1044.27 1017.3 1042.64C1024.33 1041.01 1031.27 1040.19 1038.13 1040.19C1043.85 1040.19 1048.99 1040.76 1053.57 1041.9C1058.14 1043.05 1062.55 1044.76 1066.8 1047.05C1069.08 1048.36 1070.76 1049.91 1071.82 1051.7C1072.88 1053.5 1073.41 1055.3 1073.41 1057.09C1073.41 1058.4 1073.09 1059.83 1072.43 1061.38C1071.78 1062.93 1070.84 1064.24 1069.62 1065.3C1068.39 1066.36 1066.88 1067.14 1065.08 1067.63C1063.29 1068.12 1061.33 1067.96 1059.2 1067.14C1054.95 1065.83 1050.71 1064.65 1046.46 1063.59C1042.21 1062.53 1037.8 1062 1033.23 1062C1029.8 1062 1026.25 1062.32 1022.57 1062.98C1018.9 1063.63 1015.55 1064.77 1012.53 1066.41C1009.5 1068.04 1006.93 1070.12 1004.81 1072.65C1002.68 1075.19 1001.46 1078.41 1001.13 1082.33C1000.81 1085.6 1001.95 1088.38 1004.56 1090.66C1007.18 1092.95 1010.03 1094.79 1013.14 1096.18C1016.24 1097.56 1019.1 1098.54 1021.71 1099.12C1024.33 1099.69 1025.55 1099.97 1025.39 1099.97C1032.09 1101.44 1038.33 1102.95 1044.13 1104.51C1049.93 1106.06 1056.34 1108.79 1063.37 1112.71C1069.57 1116.15 1074.31 1120.84 1077.58 1126.8C1080.85 1132.77 1082.48 1139.34 1082.48 1146.53C1082.48 1153.88 1081.13 1160.29 1078.44 1165.76C1075.74 1171.23 1072.11 1175.77 1067.53 1179.36C1062.96 1182.95 1057.73 1185.69 1051.85 1187.57C1045.97 1189.45 1039.85 1190.47 1033.47 1190.63C1027.92 1190.79 1022.33 1190.3 1016.69 1189.16C1011.06 1188.02 1005.71 1186.38 1000.64 1184.26C995.578 1182.14 990.923 1179.61 986.675 1176.67C982.428 1173.73 978.835 1170.54 975.895 1167.11L975.65 1166.86Z"/>
<path clip-path="url(#TextBounds)" d="M1129.03 1177.65C1128.87 1181.89 1127.52 1185 1124.99 1186.96C1122.46 1188.92 1119.72 1189.9 1116.78 1189.9C1114 1189.9 1111.43 1188.96 1109.06 1187.08C1106.69 1185.2 1105.27 1182.38 1104.78 1178.63L1104.78 1063.96C1102.49 1063.14 1100.53 1061.83 1098.9 1060.04C1097.26 1058.24 1096.44 1056.2 1096.44 1053.91C1096.44 1050.32 1097.92 1047.29 1100.86 1044.84C1108.21 1040.11 1116.29 1036.35 1125.11 1033.57C1133.93 1030.8 1142.92 1029.41 1152.06 1029.41C1159.74 1029.41 1166.93 1030.39 1173.63 1032.35C1180.32 1034.31 1186.45 1037.57 1192 1042.15C1198.86 1047.54 1203.76 1053.34 1206.7 1059.55C1209.64 1065.75 1211.11 1072.12 1211.11 1078.66C1211.11 1083.88 1210.3 1088.99 1208.66 1093.97C1207.03 1098.95 1204.7 1103.65 1201.68 1108.06C1198.66 1112.47 1195.03 1116.51 1190.78 1120.19C1186.53 1123.86 1181.71 1126.93 1176.32 1129.38L1215.28 1172.5C1217.4 1175.44 1218.47 1178.05 1218.47 1180.34C1218.47 1183.44 1217.36 1185.94 1215.16 1187.81C1212.95 1189.69 1210.3 1190.63 1207.19 1190.63C1205.4 1190.63 1203.6 1190.35 1201.8 1189.77C1200.01 1189.2 1198.37 1188.1 1196.9 1186.47C1195.43 1184.67 1192.57 1181.4 1188.33 1176.67C1184.08 1171.93 1179.43 1166.86 1174.36 1161.47C1169.3 1156.08 1164.6 1151.02 1160.27 1146.28C1155.94 1141.55 1153.13 1138.36 1151.82 1136.73C1144.14 1138.03 1136.55 1138.77 1129.03 1138.93L1129.03 1177.65ZM1176.57 1058.57C1172.81 1055.79 1168.77 1053.87 1164.44 1052.81C1160.11 1051.75 1155.66 1051.21 1151.08 1051.21C1143.24 1051.21 1135.89 1052.52 1129.03 1055.13L1129.03 1117.13C1134.59 1116.8 1140.18 1116.31 1145.82 1115.66C1151.45 1115 1157.05 1113.53 1162.6 1111.24C1166.03 1110.1 1169.22 1108.35 1172.16 1105.98C1175.1 1103.61 1177.71 1100.95 1180 1098.01C1182.28 1095.07 1184.08 1091.89 1185.39 1088.46C1186.69 1085.03 1187.35 1081.68 1187.35 1078.41C1187.35 1074.65 1186.53 1071.1 1184.9 1067.75C1183.26 1064.4 1180.49 1061.34 1176.57 1058.57Z"/>
<path clip-path="url(#TextBounds)" d="M1352.74 1102.67C1356.49 1103.49 1359.19 1104.91 1360.82 1106.96C1362.46 1109 1363.27 1111.16 1363.27 1113.45C1363.27 1115.41 1362.7 1117.25 1361.56 1118.96C1360.41 1120.68 1358.54 1122.11 1355.92 1123.25L1355.92 1159.02C1355.92 1162.13 1354.94 1164.9 1352.98 1167.35C1351.02 1169.8 1348.98 1172.01 1346.86 1173.97L1344.9 1175.69C1339.67 1180.91 1333.46 1184.71 1326.27 1187.08C1319.09 1189.45 1311.66 1190.63 1303.98 1190.63C1291.73 1190.63 1281.07 1188.14 1272 1183.16C1262.94 1178.18 1255.34 1171.89 1249.22 1164.29C1243.09 1156.7 1238.52 1148.41 1235.49 1139.42C1232.47 1130.44 1230.96 1121.86 1230.96 1113.69C1230.96 1109.12 1231.57 1104.14 1232.8 1098.75C1234.02 1093.36 1235.86 1087.97 1238.31 1082.58C1240.76 1077.19 1243.83 1072.04 1247.5 1067.14C1251.18 1062.24 1255.38 1058.16 1260.12 1054.89C1268.94 1049.34 1278.01 1044.68 1287.32 1040.92C1296.63 1037.17 1306.18 1035.29 1315.98 1035.29C1318.76 1035.29 1322.23 1035.57 1326.4 1036.15C1330.56 1036.72 1334.56 1037.66 1338.4 1038.96C1342.24 1040.27 1345.55 1042.03 1348.33 1044.23C1351.1 1046.44 1352.49 1049.17 1352.49 1052.44C1352.49 1055.22 1351.39 1057.63 1349.18 1059.67C1346.98 1061.71 1344.24 1062.73 1340.98 1062.73C1339.34 1062.73 1337.63 1062.53 1335.83 1062.12C1334.03 1061.71 1332.16 1061.1 1330.2 1060.28C1327.74 1059.46 1325.29 1058.65 1322.84 1057.83C1320.39 1057.01 1318.11 1056.6 1315.98 1056.6C1314.68 1056.6 1313.33 1056.69 1311.94 1056.85C1310.55 1057.01 1309.12 1057.34 1307.65 1057.83C1301.45 1059.79 1295.24 1062.08 1289.03 1064.69C1282.82 1067.3 1277.19 1070.73 1272.13 1074.98C1267.06 1079.23 1262.94 1084.5 1259.75 1090.79C1256.57 1097.07 1254.97 1104.87 1254.97 1114.18C1254.97 1121.86 1256.28 1129.05 1258.89 1135.75C1261.51 1142.44 1264.98 1148.24 1269.31 1153.14C1273.64 1158.04 1278.66 1161.92 1284.38 1164.78C1290.09 1167.64 1296.06 1169.07 1302.26 1169.07C1307.49 1169.07 1312.64 1168.05 1317.7 1166.01C1322.76 1163.97 1327.42 1160.82 1331.67 1156.57L1331.67 1124.48C1325.95 1124.64 1320.19 1124.72 1314.39 1124.72C1308.59 1124.72 1302.83 1124.72 1297.12 1124.72C1292.87 1124.07 1289.77 1122.76 1287.81 1120.8C1285.85 1118.84 1284.87 1116.55 1284.87 1113.94C1284.87 1111.33 1285.93 1108.84 1288.05 1106.47C1290.17 1104.1 1293.52 1102.91 1298.1 1102.91L1325.05 1102.91C1331.09 1102.91 1336.69 1102.87 1341.83 1102.79C1346.98 1102.71 1350.45 1102.67 1352.25 1102.67L1352.74 1102.67Z"/>
</g>
<path d="M843.599 364.904L918.179 396.743L918.179 503.446C918.179 521.947 925.596 539.157 938.782 550.774C982.046 589.067 1037.26 607.998 1092.89 607.998C1148.92 607.998 1205.37 588.636 1251.11 550.344C1264.71 539.157 1272.54 521.947 1272.54 503.446L1272.54 398.034L1347.53 364.904C1352.06 362.753 1354.95 358.02 1354.95 352.857C1354.95 347.694 1352.06 342.961 1347.53 340.81L1104.42 233.246C1101.54 231.956 1097.83 231.956 1094.95 233.246L843.599 340.81C838.655 342.961 835.77 347.694 835.77 352.857C835.77 358.02 838.655 362.753 843.599 364.904ZM1177.77 565.403C1103.19 596.381 1015.83 584.764 954.851 530.982C947.434 524.098 942.902 514.202 942.902 503.446L942.902 407.499L1094.95 472.468L1095.36 472.468C1120.08 481.933 1141.92 489.678 1165.82 490.969C1172.41 491.399 1177.77 496.992 1177.77 503.876C1177.77 503.876 1177.77 565.403 1177.77 565.403ZM1099.48 259.062L1310.86 352.857L1167.93 416.28L1099.48 446.652L880.683 352.857L1099.48 259.062Z" fill="#000000" fill-rule="nonzero" opacity="1" stroke="none"/>
<path d="M1354.95 477.2L1354.95 395.882C1354.95 388.568 1349.59 382.975 1342.59 382.975C1335.58 382.975 1330.22 388.568 1330.22 395.882L1330.22 477.2C1330.22 484.515 1335.58 490.108 1342.59 490.108C1349.59 490.108 1354.95 484.085 1354.95 477.2Z" fill="#000000" fill-rule="nonzero" opacity="1" stroke="none"/>
<path d="M365.057 1120.23C365.057 1092.08 388.368 1069.05 416.858 1069.05C445.349 1069.05 468.659 1092.08 468.659 1120.23C468.659 1148.38 445.349 1171.41 416.858 1171.41C388.368 1171.41 365.057 1148.38 365.057 1120.23ZM416.858 1197C366.352 1197 326.206 1225.14 326.206 1250.73L326.206 1286.56L507.51 1286.56L507.51 1250.73C507.51 1225.14 467.364 1197 416.858 1197ZM365.057 979.49C365.057 951.342 388.368 928.312 416.858 928.312C445.349 928.312 468.659 951.342 468.659 979.49C468.659 1007.64 445.349 1030.67 416.858 1030.67C388.368 1030.67 365.057 1007.64 365.057 979.49Z" fill="none" opacity="1" stroke="#000000" stroke-linecap="butt" stroke-linejoin="miter" stroke-width="7.61917"/>
<path d="M494.56 1056.26C494.56 1028.11 517.87 1005.08 546.361 1005.08C574.851 1005.08 598.162 1028.11 598.162 1056.26C598.162 1084.4 574.851 1107.43 546.361 1107.43C517.87 1107.43 494.56 1084.4 494.56 1056.26ZM546.361 1222.58L637.013 1222.58L637.013 1186.76C637.013 1162.45 596.867 1133.02 546.361 1133.02C530.821 1133.02 516.575 1135.58 504.92 1139.42M287.356 1107.43C258.865 1107.43 235.555 1084.4 235.555 1056.26C235.555 1028.11 258.865 1005.08 287.356 1005.08C315.846 1005.08 339.157 1028.11 339.157 1056.26C339.157 1084.4 315.846 1107.43 287.356 1107.43ZM328.797 1139.42C315.846 1135.58 301.601 1133.02 287.356 1133.02C236.85 1133.02 196.704 1161.17 196.704 1186.76L196.704 1222.58L287.356 1222.58" fill="none" opacity="1" stroke="#000000" stroke-linecap="round" stroke-linejoin="miter" stroke-width="7.55996"/>
<path d="M1896.33 997.914C1897 998.902 1898.03 999.433 1899.08 999.433C1899.79 999.433 1900.51 999.193 1901.12 998.7C1902.64 997.472 1902.96 995.13 1901.83 993.469C1899.64 990.237 1897.37 987.087 1895 984.011C1893.79 982.44 1891.63 982.223 1890.17 983.555C1888.73 984.887 1888.54 987.244 1889.76 988.83C1892.04 991.778 1894.23 994.809 1896.33 997.914ZM1934.93 1126.39C1935.12 1124.34 1933.76 1122.5 1931.88 1122.28C1930 1122.11 1928.31 1123.56 1928.12 1125.62C1919.27 1219.1 1847.65 1289.59 1761.52 1289.59C1669.15 1289.59 1594.01 1207.48 1594.01 1106.56C1594.01 1005.64 1669.15 923.538 1761.52 923.538C1803.8 923.538 1844.18 940.8 1875.2 972.152C1876.59 973.551 1878.75 973.454 1880.04 971.942C1881.33 970.423 1881.24 968.059 1879.85 966.652C1847.56 934.021 1805.53 916.048 1761.52 916.048C1665.38 916.048 1587.16 1001.51 1587.16 1106.55C1587.16 1211.6 1665.38 1297.06 1761.52 1297.06C1851.17 1297.07 1925.72 1223.69 1934.93 1126.39Z" fill="#000000" fill-rule="nonzero" opacity="1" stroke="none"/>
<path d="M1932.36 1113.09C1932.38 1113.09 1932.4 1113.09 1932.42 1113.09C1934.28 1113.09 1935.81 1111.47 1935.85 1109.43L1935.86 1107.48L1935.86 1106.55C1935.86 1104.49 1934.33 1102.81 1932.44 1102.81C1930.55 1102.81 1929.01 1104.49 1929.01 1106.55L1929.01 1107.51L1929 1109.27C1928.97 1111.34 1930.47 1113.05 1932.36 1113.09ZM1743.33 1110.18C1743.33 1120.49 1751.01 1128.89 1760.45 1128.89C1769.88 1128.89 1777.57 1120.49 1777.57 1110.18C1777.57 1099.87 1769.88 1091.48 1760.45 1091.48C1751.01 1091.48 1743.33 1099.87 1743.33 1110.18ZM1770.72 1110.18C1770.72 1116.37 1766.11 1121.41 1760.45 1121.41C1754.78 1121.41 1750.17 1116.37 1750.17 1110.18C1750.17 1103.99 1754.78 1098.96 1760.45 1098.96C1766.11 1098.96 1770.72 1103.99 1770.72 1110.18ZM1818.65 1001.69C1818.65 968.68 1794.08 941.825 1763.87 941.825C1733.66 941.825 1709.09 968.68 1709.09 1001.69C1709.09 1002.1 1709.14 1002.5 1709.14 1002.91C1709.14 1003.16 1709.14 1003.39 1709.18 1003.64C1710.13 1035.74 1734.27 1061.55 1763.87 1061.55C1794.08 1061.55 1818.65 1034.69 1818.65 1001.69ZM1763.87 949.308C1789.2 949.308 1809.95 970.902 1811.64 998.123C1782.26 981.699 1745.93 981.243 1716.16 996.769C1718.44 970.184 1738.96 949.308 1763.87 949.308ZM1763.87 1054.06C1738.55 1054.06 1717.81 1032.48 1716.1 1005.28C1745.24 988.628 1781.86 988.778 1810.74 1006C1811.01 1006.17 1811.3 1006.21 1811.59 1006.29C1809.44 1033.02 1788.88 1054.06 1763.87 1054.06ZM1763.87 1271.06C1794.08 1271.06 1818.65 1244.2 1818.65 1211.2C1818.65 1178.19 1794.08 1151.34 1763.87 1151.34C1733.66 1151.34 1709.09 1178.19 1709.09 1211.2C1709.09 1244.2 1733.66 1271.06 1763.87 1271.06ZM1763.87 1263.57C1740.18 1263.57 1720.5 1244.68 1716.66 1219.97C1731.21 1227.7 1747.35 1231.82 1763.64 1231.82C1780.12 1231.82 1796.43 1227.61 1811.11 1219.71C1807.37 1244.55 1787.64 1263.57 1763.87 1263.57ZM1763.87 1158.82C1790.24 1158.82 1811.7 1182.21 1811.8 1211C1811.74 1211.03 1811.68 1211.03 1811.61 1211.06C1782.52 1228.34 1745.3 1228.44 1716.11 1211.32C1716.06 1211.29 1716 1211.29 1715.94 1211.26C1715.94 1211.24 1715.94 1211.22 1715.94 1211.2C1715.94 1182.31 1737.44 1158.82 1763.87 1158.82ZM1907.68 1106.44C1907.68 1073.43 1883.1 1046.58 1852.89 1046.58C1822.69 1046.58 1798.11 1073.43 1798.11 1106.44C1798.11 1139.45 1822.69 1166.3 1852.89 1166.3C1883.1 1166.3 1907.68 1139.45 1907.68 1106.44ZM1900.83 1106.44C1900.83 1131 1885.26 1151.6 1864.36 1157.24C1870.85 1141.8 1874.27 1124.82 1874.27 1107.71C1874.27 1089.51 1870.36 1071.49 1863.03 1055.27C1884.61 1060.37 1900.83 1081.37 1900.83 1106.44ZM1804.96 1106.44C1804.96 1077.56 1826.46 1054.06 1852.89 1054.06C1853.6 1054.06 1854.28 1054.14 1854.98 1054.17C1855.04 1054.38 1855.06 1054.6 1855.16 1054.8C1863.18 1070.93 1867.42 1089.22 1867.42 1107.7C1867.42 1125.43 1863.49 1142.99 1856.08 1158.64C1855.03 1158.71 1853.97 1158.82 1852.9 1158.82C1826.46 1158.82 1804.96 1135.32 1804.96 1106.44ZM1668 1046.58C1637.79 1046.58 1613.22 1073.43 1613.22 1106.44C1613.22 1139.45 1637.79 1166.3 1668 1166.3C1698.21 1166.3 1722.78 1139.45 1722.78 1106.44C1722.78 1073.43 1698.21 1046.58 1668 1046.58ZM1620.07 1106.44C1620.07 1080.41 1637.55 1058.81 1660.37 1054.79C1652.78 1071.13 1648.74 1089.4 1648.74 1107.83C1648.74 1125.15 1652.28 1142.3 1658.98 1157.85C1636.84 1153.23 1620.07 1131.95 1620.07 1106.44ZM1668 1158.82C1667.68 1158.82 1667.37 1158.77 1667.06 1158.77C1659.57 1143.15 1655.59 1125.59 1655.59 1107.83C1655.59 1089.72 1659.71 1071.76 1667.5 1055.9C1667.79 1055.31 1667.87 1054.69 1667.86 1054.07C1667.9 1054.07 1667.95 1054.06 1668 1054.06C1694.43 1054.06 1715.94 1077.56 1715.94 1106.44C1715.94 1135.32 1694.43 1158.82 1668 1158.82Z" fill="#000000" fill-rule="nonzero" opacity="1" stroke="#000000" stroke-linecap="round" stroke-linejoin="round" stroke-width="3.59855"/>
<path d="M2003.55 1308.47L1836.2 1308.47C1910.02 1276.8 1962.46 1198.21 1962.46 1106.44C1962.46 986.787 1873.37 889.447 1763.87 889.447C1654.37 889.447 1565.28 986.787 1565.28 1106.44C1565.28 1219.95 1645.47 1313.32 1747.19 1322.61C1748.1 1323.1 1749.09 1323.43 1750.17 1323.43L2003.55 1323.43C2007.33 1323.43 2010.39 1320.08 2010.39 1315.95C2010.39 1311.82 2007.33 1308.47 2003.55 1308.47ZM1578.98 1106.44C1578.98 995.041 1661.92 904.413 1763.87 904.413C1865.82 904.413 1948.76 995.041 1948.76 1106.44C1948.76 1217.84 1865.82 1308.47 1763.87 1308.47C1661.92 1308.47 1578.98 1217.84 1578.98 1106.44Z" fill="#000000" fill-rule="nonzero" opacity="1" stroke="#000000" stroke-linecap="round" stroke-linejoin="round" stroke-width="3.78267"/>
<path d="M942.93 1692.94L917.679 1692.94C909.521 1692.94 902.9 1699.68 902.9 1708.01L902.9 1979.28C902.9 1987.6 909.521 1994.35 917.679 1994.35C917.679 1994.35 1039.53 1994.35 1055.02 1994.35C1055.02 1994.35 1068.36 2018.79 1095.05 2018.79C1121.73 2018.79 1135.08 1994.35 1135.08 1994.35C1150.75 1994.35 1272.41 1994.35 1272.41 1994.35C1280.57 1994.35 1287.19 1987.6 1287.19 1979.28L1287.19 1708.01C1287.19 1699.68 1280.57 1692.94 1272.41 1692.94L1247.16 1692.94" fill="none" opacity="1" stroke="#000000" stroke-linecap="butt" stroke-linejoin="round" stroke-width="7.8829"/>
<path d="M1095.05 1692.94L1095.05 1969.91C1095.05 1969.91 1127.74 1937.32 1247.16 1937.32L1247.16 1644.06C1127.07 1644.06 1095.05 1692.94 1095.05 1692.94ZM1095.05 1692.94L1095.05 1969.91C1095.05 1969.91 1062.36 1937.32 942.93 1937.32L942.93 1644.06C1063.02 1644.06 1095.05 1692.94 1095.05 1692.94Z" fill="none" opacity="1" stroke="#000000" stroke-linecap="round" stroke-linejoin="round" stroke-width="7.8829"/>
<path d="M1793.45 1420.16L1706.76 1475.78L1602.73 1420.16L1507.37 1475.78L1412.01 1420.16L1412.01 1735.32L1507.37 1790.94L1602.73 1735.32L1706.76 1790.94L1793.45 1735.32L1793.45 1420.16Z" fill="none" opacity="1" stroke="#000000" stroke-linecap="butt" stroke-linejoin="round" stroke-width="7.61917"/>
<path d="M1550.72 1512.85L1542.05 1531.39L1550.72 1549.93L1576.73 1531.39L1576.73 1512.85L1550.72 1512.85ZM1533.38 1512.85L1481.37 1522.12L1464.03 1522.12L1446.69 1540.66L1446.69 1549.93L1464.03 1549.93L1472.7 1587.01L1498.7 1614.82L1490.04 1633.36L1507.37 1651.9L1516.04 1698.24L1533.38 1707.51L1542.05 1661.17L1550.72 1651.9L1559.39 1633.36L1542.05 1614.82L1507.37 1605.55L1507.37 1587.01L1533.38 1559.2L1542.05 1549.93L1524.71 1531.39L1533.38 1522.12L1533.38 1512.85ZM1758.78 1531.39L1680.76 1522.12L1620.07 1531.39L1594.06 1549.93L1594.06 1577.74L1620.07 1559.2L1620.07 1568.47L1585.4 1596.28L1576.73 1624.09L1602.73 1642.63L1611.4 1688.97L1628.74 1707.51L1654.75 1651.9L1654.75 1633.36L1637.41 1605.55L1620.07 1596.28L1637.41 1596.28L1654.75 1614.82L1680.76 1596.28L1689.42 1614.82L1698.09 1596.28L1715.43 1614.82L1724.1 1596.28L1741.44 1577.74L1732.77 1549.93L1758.78 1531.39ZM1706.76 1661.17L1741.44 1642.63L1750.11 1670.44L1741.44 1698.24L1724.1 1679.7L1706.76 1679.7L1706.76 1661.17Z" fill="#000000" fill-rule="nonzero" opacity="1" stroke="none"/>
<path d="M710.943 506.226L622.764 506.226L622.764 422.02" fill="none" opacity="1" stroke="#000000" stroke-linecap="butt" stroke-linejoin="miter" stroke-width="8.24352"/>
<path d="M710.943 548.329L710.943 506.226L622.764 422.02L411.135 422.02L411.135 784.106M536.781 656.231L616.988 579.637M680.777 636.602L600.569 713.196M630.453 683L736.197 795.895C744.125 803.465 757.537 802.943 766.143 794.716C774.749 786.489 775.305 773.69 767.377 766.12L649.156 665.14" fill="none" opacity="1" stroke="#000000" stroke-linecap="butt" stroke-linejoin="miter" stroke-width="7.54381"/>
<path d="M695.829 649.376C691.958 649.376 688.096 647.97 685.142 645.149L609.564 572.976C603.656 567.343 603.656 558.198 609.564 552.565C615.472 546.923 625.03 546.923 630.938 552.565L706.516 624.738C712.424 630.371 712.424 639.516 706.516 645.149C703.562 647.97 699.691 649.376 695.829 649.376ZM598.832 742.003C594.961 742.003 591.099 740.597 588.145 737.776L512.567 665.603C506.659 659.97 506.659 650.825 512.567 645.191C518.475 639.55 528.033 639.55 533.941 645.191L609.52 717.365C615.428 722.998 615.428 732.143 609.52 737.776C606.566 740.597 602.695 742.003 598.832 742.003Z" fill="none" opacity="1" stroke="#000000" stroke-linecap="butt" stroke-linejoin="miter" stroke-width="7.93134"/>
<path d="M719.761 539.908L719.761 601.632L702.125 584.79L702.125 539.908L719.761 539.908ZM590.014 767.265L411.135 767.265L411.135 784.106L689.515 784.106L673.679 767.265L590.014 767.265Z" fill="#000000" fill-rule="nonzero" opacity="1" stroke="#000000" stroke-linecap="butt" stroke-linejoin="miter" stroke-width="7.57611"/>
<path d="M1645.14 466.239C1648.79 466.239 1651.75 463.336 1651.75 459.744L1651.75 446.753C1651.75 443.161 1648.79 440.257 1645.14 440.257C1641.49 440.257 1638.53 443.161 1638.53 446.753L1638.53 459.744C1638.53 463.336 1641.49 466.239 1645.14 466.239ZM1605.41 465.739C1606.2 468.643 1608.87 470.552 1611.79 470.552C1612.36 470.552 1612.93 470.481 1613.51 470.332C1617.03 469.403 1619.12 465.843 1618.18 462.375L1614.76 449.825C1613.82 446.357 1610.2 444.298 1606.66 445.233C1603.14 446.162 1601.05 449.721 1601.99 453.19L1605.41 465.739ZM1719.46 459.841C1716.31 458.049 1712.26 459.107 1710.44 462.219L1703.83 473.462C1702.01 476.574 1703.09 480.543 1706.25 482.335C1707.29 482.926 1708.42 483.206 1709.55 483.206C1711.83 483.206 1714.05 482.043 1715.27 479.958L1721.88 468.714C1723.71 465.603 1722.63 461.634 1719.46 459.841ZM1575 479.958C1576.23 482.043 1578.45 483.206 1580.73 483.206C1581.86 483.206 1582.99 482.926 1584.03 482.335C1587.19 480.543 1588.28 476.567 1586.45 473.462L1579.84 462.219C1578.01 459.107 1573.95 458.042 1570.82 459.841C1567.65 461.634 1566.57 465.609 1568.4 468.714L1575 479.958ZM1676.77 470.332C1677.35 470.481 1677.92 470.552 1678.49 470.552C1681.4 470.552 1684.08 468.643 1684.86 465.739L1688.29 453.19C1689.23 449.728 1687.14 446.162 1683.62 445.233C1680.11 444.298 1676.47 446.357 1675.52 449.825L1672.1 462.375C1671.16 465.837 1673.25 469.403 1676.77 470.332Z" fill="#000000" fill-rule="nonzero" opacity="1" stroke="#000000" stroke-linecap="round" stroke-linejoin="round" stroke-width="3.71697"/>
<path d="M1777.13 688.912C1798.83 645.21 1810.3 597.403 1810.3 550.681C1810.3 466.545 1742.39 407.78 1645.14 407.78C1551.58 407.78 1482.14 468.903 1480.03 553.117C1479.98 555.157 1479.65 557.066 1479.07 558.8L1443.26 664.411C1442 668.152 1442.5 672.199 1444.66 675.525C1446.82 678.851 1450.35 681.007 1454.34 681.442L1474.09 683.599C1477.45 683.969 1479.98 686.743 1479.98 690.055L1479.98 748.996C1479.98 758.219 1483.98 767.034 1490.98 773.191C1497.97 779.349 1507.31 782.292 1516.66 781.278L1556.53 776.92L1571.42 775.296L1567.9 801.447C1567.15 807.007 1568.87 812.626 1572.64 816.848C1576.41 821.07 1581.84 823.493 1587.54 823.493L1762.59 823.493C1768.2 823.493 1773.56 821.148 1777.32 817.049C1781.07 812.95 1782.89 807.449 1782.3 801.973L1772.8 713.322C1771.91 704.872 1773.41 696.427 1777.13 688.912ZM1767.5 808.351C1766.23 809.742 1764.49 810.502 1762.59 810.502L1587.54 810.502C1585.61 810.502 1583.84 809.716 1582.58 808.287C1581.31 806.858 1580.75 805.032 1581 803.149L1584.95 773.815L1606.23 771.489C1609.85 771.087 1612.46 767.878 1612.07 764.318C1611.67 760.759 1608.42 758.226 1604.77 758.576L1534.37 766.267C1534.37 766.267 1534.36 766.274 1534.35 766.274L1515.2 768.365C1509.63 769.015 1503.99 767.209 1499.79 763.519C1495.53 759.765 1493.19 754.614 1493.19 748.996L1493.19 690.055C1493.19 680.117 1485.61 671.79 1475.56 670.686L1455.8 668.529L1491.61 562.906C1492.61 559.95 1493.16 556.767 1493.24 553.435C1495.17 476.567 1559.06 420.771 1645.14 420.771C1750.11 420.771 1797.09 486.018 1797.09 550.681C1797.09 595.448 1786.08 641.274 1765.27 683.215C1760.45 692.926 1758.51 703.806 1759.68 714.673L1769.17 803.324C1769.36 805.182 1768.77 806.968 1767.5 808.351Z" fill="#000000" fill-rule="nonzero" opacity="1" stroke="#000000" stroke-linecap="round" stroke-linejoin="round" stroke-width="3.71697"/>
<path d="M1694.1 553.916L1667.89 559.073C1666.88 559.255 1666.18 558.839 1665.85 558.573C1665.55 558.333 1665.08 557.839 1664.97 557.04C1675.48 549.259 1680.22 536.54 1677.33 523.829C1674.61 511.883 1665.05 502.374 1652.96 499.613C1642.85 497.295 1632.53 499.548 1624.59 505.758C1616.66 511.961 1612.11 521.23 1612.11 531.195C1612.11 541.406 1616.9 550.805 1625.3 557.034C1625.19 557.833 1624.72 558.333 1624.42 558.573C1624.09 558.839 1623.38 559.255 1622.39 559.073L1593.05 553.299C1582.6 551.24 1572.14 557.917 1569.81 568.18L1564.69 590.882C1563.68 595.351 1564.77 599.956 1567.68 603.522C1573.08 610.141 1584.34 611.096 1589.76 603.951C1594.52 597.735 1602.3 594.961 1610.12 596.65C1617.23 598.215 1623.11 603.931 1624.76 610.869C1626.21 616.981 1624.88 622.97 1621.04 627.731C1617.24 632.434 1611.58 635.123 1605.5 635.123C1599.25 635.123 1593.5 632.252 1589.71 627.244C1584.45 620.255 1573.13 621.073 1567.68 627.744C1564.77 631.31 1563.68 635.922 1564.69 640.384L1570.33 665.327C1572.36 674.317 1580.32 680.591 1589.68 680.591L1697.99 680.591C1708.92 680.591 1717.81 671.848 1717.81 661.105L1717.81 573.019C1717.81 567.16 1715.17 561.665 1710.55 557.95C1705.95 554.241 1699.97 552.74 1694.1 553.916ZM1704.6 661.105C1704.6 664.69 1701.64 667.6 1697.99 667.6L1589.67 667.6C1586.55 667.6 1583.9 665.509 1583.22 662.514L1577.58 637.572C1577.4 636.747 1577.75 636.156 1577.98 635.87C1578.17 635.642 1578.55 635.279 1579.23 635.162C1585.54 643.392 1595.1 648.114 1605.5 648.114C1615.63 648.114 1625.07 643.638 1631.38 635.818C1637.69 628.004 1639.97 617.838 1637.62 607.933C1634.81 596.052 1625.14 586.653 1612.99 583.977C1600.04 581.132 1587.1 585.789 1579.58 596.143C1578.72 596.143 1578.21 595.676 1577.98 595.396C1577.75 595.11 1577.4 594.519 1577.58 593.694L1582.71 570.999C1583.47 567.576 1586.94 565.335 1590.45 566.03L1619.8 571.805C1624.45 572.733 1629.16 571.545 1632.79 568.609C1636.45 565.679 1638.53 561.347 1638.53 556.547C1638.53 552.701 1636.64 549.116 1633.34 546.719C1628.24 542.997 1625.32 537.339 1625.32 531.195C1625.32 525.219 1628.05 519.652 1632.82 515.924C1637.67 512.143 1643.79 510.844 1649.98 512.26C1657.04 513.878 1662.85 519.665 1664.44 526.654C1666.19 534.332 1663.34 541.997 1657.03 546.66C1653.68 549.122 1651.75 552.773 1651.75 556.676L1651.75 556.715C1651.75 561.347 1653.83 565.679 1657.47 568.615C1661.11 571.545 1665.84 572.74 1670.48 571.811L1696.7 566.654C1698.66 566.296 1700.65 566.757 1702.18 567.998C1703.71 569.232 1704.6 571.071 1704.6 573.019L1704.6 661.105Z" fill="#000000" fill-rule="nonzero" opacity="1" stroke="#000000" stroke-linecap="round" stroke-linejoin="round" stroke-width="3.71697"/>
<path d="M393.451 1792.9L422.4 1768.39C439.586 1753.83 462.098 1750.67 481.801 1760.06L578.957 1799.83C592.164 1805.24 606.834 1802.62 617.998 1792.84L749.029 1678.22C759.188 1670.13 762.012 1654.22 755.425 1642.17L755.425 1642.17C748.646 1629.76 734.434 1626.04 723.685 1633.87L628.274 1701.76" fill="none" opacity="1" stroke="#000000" stroke-linecap="round" stroke-linejoin="round" stroke-width="7.59764"/>
<path d="M526.392 1716.17C526.392 1716.17 603.453 1742.83 608.852 1744.3C610.381 1744.72 611.976 1744.95 613.612 1744.95C625.084 1744.95 634.379 1734.21 634.379 1720.97C634.379 1712.14 630.242 1704.5 624.087 1700.37C621.587 1698.69 609.417 1691.99 605.031 1689.7C593.036 1683.44 552.699 1664.21 522.188 1648.75C498.282 1636.63 471.144 1636.34 447.046 1647.93L393.484 1673.68M634.379 1553.61C634.379 1545.56 634.379 1540.9 634.379 1534.05C637.17 1532.26 647.072 1520.23 647.072 1509.36C649.273 1509.15 652.729 1506.54 653.742 1496.26C654.29 1490.74 652.571 1487.26 650.793 1486.66C657.771 1461.4 653.958 1428.55 623.697 1428.55L617.766 1418.95C576.049 1418.95 566.638 1448.93 576.265 1486.49C574.953 1487.45 572.776 1490.57 573.316 1496.09C574.338 1506.37 577.794 1508.98 579.987 1509.19C579.987 1520.7 590.046 1532.27 592.845 1534.05C592.845 1542.35 592.845 1546.19 592.845 1553.61C586.15 1575.52 545.09 1568.56 543.005 1610.78L684.219 1610.78C682.134 1568.56 641.074 1575.5 634.379 1553.61Z" fill="none" opacity="1" stroke="#000000" stroke-linecap="round" stroke-linejoin="round" stroke-width="7.58687"/>
<g opacity="1">
<path d="M-1217.69 1362.12C-1219.56 1361.79-1221.36 1363.06-1221.69 1364.94C-1222.02 1366.81-1220.78 1368.61-1218.91 1368.94C-1216.83 1369.21-1214.72 1369.55-1212.62 1369.66C-1209.24 1369.82-1205.86 1369.85-1202.47 1370C-1197.82 1370.21-1193.17 1370.53-1188.53 1370.81C-1192.99 1369.49-1197.44 1368.18-1201.88 1366.78C-1205.11 1365.76-1208.32 1364.63-1211.56 1363.62C-1213.57 1363-1215.64 1362.58-1217.69 1362.12Z" fill="#000000" stroke="none"/>
</g>
</g>
</svg>
